<mxfile host="app.diagrams.net" modified="2021-09-27T12:44:28.572Z" agent="5.0 (Windows NT 10.0; Win64; x64) AppleWebKit/537.36 (KHTML, like Gecko) Chrome/93.0.4577.82 Safari/537.36 Edg/93.0.961.52" etag="HR7YdfMjAol1_SY0t1Hm" version="15.3.5" type="github">
  <diagram id="3cxNoclepyebO-XoaGaZ" name="Page-1">
    <mxGraphModel dx="3538" dy="1690" grid="1" gridSize="10" guides="1" tooltips="1" connect="1" arrows="1" fold="1" page="1" pageScale="1" pageWidth="880" pageHeight="400" math="0" shadow="0">
      <root>
        <mxCell id="0" />
        <mxCell id="1" parent="0" />
        <mxCell id="czPCkU2lxytU1BRcndqq-1" value="" style="text;html=1;fillColor=#b1ddf0;align=center;verticalAlign=middle;whiteSpace=wrap;rounded=0;rotation=90;gradientColor=#ffffff;gradientDirection=radial;shadow=0;sketch=0;glass=0;fontFamily=Times New Roman;fontSize=14;" parent="1" vertex="1">
          <mxGeometry x="-2058" y="-1092.09" width="249.24" height="107.08" as="geometry" />
        </mxCell>
        <mxCell id="czPCkU2lxytU1BRcndqq-2" value="w&lt;sub style=&quot;font-size: 14px;&quot;&gt;q1&lt;/sub&gt;" style="rounded=1;whiteSpace=wrap;html=1;direction=west;fillColor=#d5e8d4;strokeColor=#82b366;fontFamily=Times New Roman;fontSize=14;" parent="1" vertex="1">
          <mxGeometry x="-2587" y="-1180" width="44" height="21" as="geometry" />
        </mxCell>
        <mxCell id="czPCkU2lxytU1BRcndqq-3" value="w&lt;sub style=&quot;font-size: 14px;&quot;&gt;qm&lt;/sub&gt;" style="rounded=1;whiteSpace=wrap;html=1;fillColor=#d5e8d4;strokeColor=#82b366;fontFamily=Times New Roman;fontSize=14;" parent="1" vertex="1">
          <mxGeometry x="-2589" y="-1133" width="44" height="21" as="geometry" />
        </mxCell>
        <mxCell id="czPCkU2lxytU1BRcndqq-4" value="&lt;b style=&quot;font-size: 14px;&quot;&gt;&lt;font style=&quot;font-size: 14px;&quot;&gt;···&lt;/font&gt;&lt;/b&gt;" style="text;html=1;align=center;verticalAlign=middle;whiteSpace=wrap;rounded=0;rotation=90;fontFamily=Times New Roman;fontSize=14;" parent="1" vertex="1">
          <mxGeometry x="-2585" y="-1156" width="40" height="20" as="geometry" />
        </mxCell>
        <mxCell id="czPCkU2lxytU1BRcndqq-5" value="w&lt;sub style=&quot;font-size: 14px;&quot;&gt;11&lt;/sub&gt;" style="rounded=1;whiteSpace=wrap;html=1;fillColor=#d5e8d4;strokeColor=#82b366;fontFamily=Times New Roman;fontSize=14;" parent="1" vertex="1">
          <mxGeometry x="-2589" y="-1094" width="44" height="21" as="geometry" />
        </mxCell>
        <mxCell id="czPCkU2lxytU1BRcndqq-6" value="w&lt;sub style=&quot;font-size: 14px;&quot;&gt;1m&lt;/sub&gt;" style="rounded=1;whiteSpace=wrap;html=1;fillColor=#d5e8d4;strokeColor=#82b366;fontFamily=Times New Roman;fontSize=14;" parent="1" vertex="1">
          <mxGeometry x="-2589" y="-1045" width="44" height="21" as="geometry" />
        </mxCell>
        <mxCell id="czPCkU2lxytU1BRcndqq-7" value="&lt;b style=&quot;font-size: 14px;&quot;&gt;&lt;font style=&quot;font-size: 14px;&quot;&gt;···&lt;/font&gt;&lt;/b&gt;" style="text;html=1;align=center;verticalAlign=middle;whiteSpace=wrap;rounded=0;rotation=90;fontFamily=Times New Roman;fontSize=14;" parent="1" vertex="1">
          <mxGeometry x="-2587" y="-1067" width="40" height="20" as="geometry" />
        </mxCell>
        <mxCell id="czPCkU2lxytU1BRcndqq-8" value="w&lt;sub style=&quot;font-size: 14px;&quot;&gt;n1&lt;/sub&gt;" style="rounded=1;whiteSpace=wrap;html=1;fillColor=#d5e8d4;strokeColor=#82b366;fontFamily=Times New Roman;fontSize=14;" parent="1" vertex="1">
          <mxGeometry x="-2591" y="-977" width="44" height="21" as="geometry" />
        </mxCell>
        <mxCell id="czPCkU2lxytU1BRcndqq-9" value="w&lt;sub style=&quot;font-size: 14px;&quot;&gt;nm&lt;/sub&gt;" style="rounded=1;whiteSpace=wrap;html=1;fillColor=#d5e8d4;strokeColor=#82b366;fontFamily=Times New Roman;fontSize=14;" parent="1" vertex="1">
          <mxGeometry x="-2592" y="-932" width="44" height="21" as="geometry" />
        </mxCell>
        <mxCell id="czPCkU2lxytU1BRcndqq-10" value="&lt;b style=&quot;font-size: 14px;&quot;&gt;&lt;font style=&quot;font-size: 14px;&quot;&gt;···&lt;/font&gt;&lt;/b&gt;" style="text;html=1;align=center;verticalAlign=middle;whiteSpace=wrap;rounded=0;rotation=90;fontFamily=Times New Roman;fontSize=14;" parent="1" vertex="1">
          <mxGeometry x="-2589" y="-952" width="40" height="20" as="geometry" />
        </mxCell>
        <mxCell id="czPCkU2lxytU1BRcndqq-11" value="&lt;font style=&quot;font-size: 17px&quot;&gt;问题&lt;/font&gt;" style="text;html=1;strokeColor=none;fillColor=none;align=center;verticalAlign=middle;whiteSpace=wrap;rounded=0;rotation=90;fontFamily=Times New Roman;fontSize=17;" parent="1" vertex="1">
          <mxGeometry x="-2632" y="-1156" width="40" height="20" as="geometry" />
        </mxCell>
        <mxCell id="czPCkU2lxytU1BRcndqq-12" value="&lt;font style=&quot;font-size: 17px&quot;&gt;子句1&lt;/font&gt;" style="text;html=1;strokeColor=none;fillColor=none;align=center;verticalAlign=middle;whiteSpace=wrap;rounded=0;rotation=90;fontFamily=Times New Roman;fontSize=17;" parent="1" vertex="1">
          <mxGeometry x="-2647.12" y="-1067" width="65.25" height="20" as="geometry" />
        </mxCell>
        <mxCell id="czPCkU2lxytU1BRcndqq-13" value="&lt;font style=&quot;font-size: 17px&quot;&gt;子句n&lt;/font&gt;" style="text;html=1;strokeColor=none;fillColor=none;align=center;verticalAlign=middle;whiteSpace=wrap;rounded=0;rotation=90;fontFamily=Times New Roman;fontSize=17;" parent="1" vertex="1">
          <mxGeometry x="-2650" y="-956" width="71" height="20" as="geometry" />
        </mxCell>
        <mxCell id="czPCkU2lxytU1BRcndqq-14" value="&lt;b style=&quot;font-size: 14px;&quot;&gt;&lt;font style=&quot;font-size: 14px;&quot;&gt;···&lt;/font&gt;&lt;/b&gt;" style="text;html=1;align=center;verticalAlign=middle;whiteSpace=wrap;rounded=0;rotation=90;fontFamily=Times New Roman;fontSize=14;" parent="1" vertex="1">
          <mxGeometry x="-2589" y="-1010" width="40" height="20" as="geometry" />
        </mxCell>
        <mxCell id="czPCkU2lxytU1BRcndqq-15" value="" style="text;html=1;fillColor=#dae8fc;align=center;verticalAlign=middle;whiteSpace=wrap;rounded=0;rotation=90;fontFamily=Times New Roman;fontSize=14;" parent="1" vertex="1">
          <mxGeometry x="-2595.25" y="-1090.25" width="270.5" height="89.5" as="geometry" />
        </mxCell>
        <mxCell id="czPCkU2lxytU1BRcndqq-16" style="edgeStyle=orthogonalEdgeStyle;rounded=0;orthogonalLoop=1;jettySize=auto;html=1;exitX=1;exitY=0.5;exitDx=0;exitDy=0;entryX=0;entryY=0.5;entryDx=0;entryDy=0;endArrow=none;endFill=0;fillColor=#dae8fc;strokeColor=#A9C4EB;fontFamily=Times New Roman;fontSize=14;" parent="1" source="czPCkU2lxytU1BRcndqq-20" target="czPCkU2lxytU1BRcndqq-36" edge="1">
          <mxGeometry relative="1" as="geometry" />
        </mxCell>
        <mxCell id="czPCkU2lxytU1BRcndqq-17" style="rounded=0;orthogonalLoop=1;jettySize=auto;html=1;entryX=0;entryY=0.5;entryDx=0;entryDy=0;endArrow=none;endFill=0;exitX=1;exitY=0.5;exitDx=0;exitDy=0;fillColor=#dae8fc;strokeColor=#A9C4EB;fontFamily=Times New Roman;fontSize=14;" parent="1" source="czPCkU2lxytU1BRcndqq-20" target="czPCkU2lxytU1BRcndqq-37" edge="1">
          <mxGeometry relative="1" as="geometry" />
        </mxCell>
        <mxCell id="czPCkU2lxytU1BRcndqq-18" style="edgeStyle=none;rounded=0;orthogonalLoop=1;jettySize=auto;html=1;entryX=0;entryY=0.5;entryDx=0;entryDy=0;endArrow=none;endFill=0;exitX=1;exitY=0.5;exitDx=0;exitDy=0;fillColor=#dae8fc;strokeColor=#A9C4EB;fontFamily=Times New Roman;fontSize=14;" parent="1" source="czPCkU2lxytU1BRcndqq-20" target="czPCkU2lxytU1BRcndqq-38" edge="1">
          <mxGeometry relative="1" as="geometry" />
        </mxCell>
        <mxCell id="czPCkU2lxytU1BRcndqq-19" style="edgeStyle=none;rounded=0;orthogonalLoop=1;jettySize=auto;html=1;entryX=0;entryY=0.5;entryDx=0;entryDy=0;endArrow=none;endFill=0;exitX=1;exitY=0.5;exitDx=0;exitDy=0;fillColor=#dae8fc;strokeColor=#A9C4EB;fontFamily=Times New Roman;fontSize=14;" parent="1" source="czPCkU2lxytU1BRcndqq-20" target="czPCkU2lxytU1BRcndqq-39" edge="1">
          <mxGeometry relative="1" as="geometry">
            <mxPoint x="-2474" y="-1139.5" as="sourcePoint" />
          </mxGeometry>
        </mxCell>
        <mxCell id="czPCkU2lxytU1BRcndqq-20" value="" style="ellipse;whiteSpace=wrap;html=1;strokeColor=#A9C4EB;fillColor=#A9C4EB;strokeWidth=0;fontFamily=Times New Roman;fontSize=14;" parent="1" vertex="1">
          <mxGeometry x="-2501" y="-1159.5" width="24" height="31" as="geometry" />
        </mxCell>
        <mxCell id="czPCkU2lxytU1BRcndqq-21" style="edgeStyle=none;rounded=0;orthogonalLoop=1;jettySize=auto;html=1;entryX=0;entryY=0.5;entryDx=0;entryDy=0;endArrow=none;endFill=0;exitX=1;exitY=0.5;exitDx=0;exitDy=0;fillColor=#dae8fc;strokeColor=#A9C4EB;fontFamily=Times New Roman;fontSize=14;" parent="1" source="czPCkU2lxytU1BRcndqq-25" target="czPCkU2lxytU1BRcndqq-36" edge="1">
          <mxGeometry relative="1" as="geometry" />
        </mxCell>
        <mxCell id="czPCkU2lxytU1BRcndqq-22" style="edgeStyle=none;rounded=0;orthogonalLoop=1;jettySize=auto;html=1;entryX=0;entryY=0.5;entryDx=0;entryDy=0;endArrow=none;endFill=0;exitX=1;exitY=0.5;exitDx=0;exitDy=0;fillColor=#dae8fc;strokeColor=#A9C4EB;fontFamily=Times New Roman;fontSize=14;" parent="1" source="czPCkU2lxytU1BRcndqq-25" target="czPCkU2lxytU1BRcndqq-37" edge="1">
          <mxGeometry relative="1" as="geometry" />
        </mxCell>
        <mxCell id="czPCkU2lxytU1BRcndqq-23" style="edgeStyle=none;rounded=0;orthogonalLoop=1;jettySize=auto;html=1;entryX=0;entryY=0.5;entryDx=0;entryDy=0;endArrow=none;endFill=0;fillColor=#dae8fc;strokeColor=#A9C4EB;fontFamily=Times New Roman;fontSize=14;" parent="1" source="czPCkU2lxytU1BRcndqq-25" target="czPCkU2lxytU1BRcndqq-38" edge="1">
          <mxGeometry relative="1" as="geometry" />
        </mxCell>
        <mxCell id="czPCkU2lxytU1BRcndqq-24" style="edgeStyle=none;rounded=0;orthogonalLoop=1;jettySize=auto;html=1;entryX=0;entryY=0.5;entryDx=0;entryDy=0;endArrow=none;endFill=0;exitX=1;exitY=0.5;exitDx=0;exitDy=0;fillColor=#dae8fc;strokeColor=#A9C4EB;fontFamily=Times New Roman;fontSize=14;" parent="1" source="czPCkU2lxytU1BRcndqq-25" target="czPCkU2lxytU1BRcndqq-39" edge="1">
          <mxGeometry relative="1" as="geometry" />
        </mxCell>
        <mxCell id="czPCkU2lxytU1BRcndqq-25" value="" style="ellipse;whiteSpace=wrap;html=1;strokeColor=#A9C4EB;fillColor=#A9C4EB;fontFamily=Times New Roman;fontSize=14;" parent="1" vertex="1">
          <mxGeometry x="-2501" y="-1073" width="24" height="31" as="geometry" />
        </mxCell>
        <mxCell id="czPCkU2lxytU1BRcndqq-26" style="edgeStyle=none;rounded=0;orthogonalLoop=1;jettySize=auto;html=1;entryX=0;entryY=0.5;entryDx=0;entryDy=0;endArrow=none;endFill=0;exitX=1;exitY=0.5;exitDx=0;exitDy=0;fillColor=#dae8fc;strokeColor=#A9C4EB;fontFamily=Times New Roman;fontSize=14;" parent="1" source="czPCkU2lxytU1BRcndqq-30" target="czPCkU2lxytU1BRcndqq-36" edge="1">
          <mxGeometry relative="1" as="geometry" />
        </mxCell>
        <mxCell id="czPCkU2lxytU1BRcndqq-27" style="edgeStyle=none;rounded=0;orthogonalLoop=1;jettySize=auto;html=1;endArrow=none;endFill=0;fillColor=#dae8fc;strokeColor=#A9C4EB;fontFamily=Times New Roman;fontSize=14;" parent="1" source="czPCkU2lxytU1BRcndqq-30" edge="1">
          <mxGeometry relative="1" as="geometry">
            <mxPoint x="-2443.8839742726295" y="-1103" as="targetPoint" />
          </mxGeometry>
        </mxCell>
        <mxCell id="czPCkU2lxytU1BRcndqq-28" style="edgeStyle=none;rounded=0;orthogonalLoop=1;jettySize=auto;html=1;entryX=0;entryY=0.5;entryDx=0;entryDy=0;endArrow=none;endFill=0;exitX=1;exitY=0.5;exitDx=0;exitDy=0;fillColor=#dae8fc;strokeColor=#A9C4EB;fontFamily=Times New Roman;fontSize=14;" parent="1" source="czPCkU2lxytU1BRcndqq-30" target="czPCkU2lxytU1BRcndqq-38" edge="1">
          <mxGeometry relative="1" as="geometry" />
        </mxCell>
        <mxCell id="czPCkU2lxytU1BRcndqq-29" style="edgeStyle=none;rounded=0;orthogonalLoop=1;jettySize=auto;html=1;entryX=0;entryY=0.5;entryDx=0;entryDy=0;endArrow=none;endFill=0;exitX=1;exitY=0.5;exitDx=0;exitDy=0;fillColor=#dae8fc;strokeColor=#A9C4EB;fontFamily=Times New Roman;fontSize=14;" parent="1" source="czPCkU2lxytU1BRcndqq-30" target="czPCkU2lxytU1BRcndqq-39" edge="1">
          <mxGeometry relative="1" as="geometry" />
        </mxCell>
        <mxCell id="czPCkU2lxytU1BRcndqq-30" value="" style="ellipse;whiteSpace=wrap;html=1;strokeColor=#A9C4EB;fillColor=#A9C4EB;fontFamily=Times New Roman;fontSize=14;" parent="1" vertex="1">
          <mxGeometry x="-2501" y="-1118.5" width="24" height="31" as="geometry" />
        </mxCell>
        <mxCell id="czPCkU2lxytU1BRcndqq-31" style="edgeStyle=none;rounded=0;orthogonalLoop=1;jettySize=auto;html=1;entryX=0;entryY=0.5;entryDx=0;entryDy=0;endArrow=none;endFill=0;exitX=1;exitY=0.5;exitDx=0;exitDy=0;fillColor=#dae8fc;strokeColor=#A9C4EB;fontFamily=Times New Roman;fontSize=14;" parent="1" source="czPCkU2lxytU1BRcndqq-35" target="czPCkU2lxytU1BRcndqq-36" edge="1">
          <mxGeometry relative="1" as="geometry" />
        </mxCell>
        <mxCell id="czPCkU2lxytU1BRcndqq-32" style="edgeStyle=none;rounded=0;orthogonalLoop=1;jettySize=auto;html=1;entryX=0;entryY=0.5;entryDx=0;entryDy=0;endArrow=none;endFill=0;exitX=1;exitY=0.5;exitDx=0;exitDy=0;fillColor=#dae8fc;strokeColor=#A9C4EB;fontFamily=Times New Roman;fontSize=14;" parent="1" source="czPCkU2lxytU1BRcndqq-35" target="czPCkU2lxytU1BRcndqq-37" edge="1">
          <mxGeometry relative="1" as="geometry" />
        </mxCell>
        <mxCell id="czPCkU2lxytU1BRcndqq-33" style="edgeStyle=none;rounded=0;orthogonalLoop=1;jettySize=auto;html=1;entryX=0;entryY=0.5;entryDx=0;entryDy=0;endArrow=none;endFill=0;exitX=1;exitY=0.5;exitDx=0;exitDy=0;fillColor=#dae8fc;strokeColor=#A9C4EB;fontFamily=Times New Roman;fontSize=14;" parent="1" source="czPCkU2lxytU1BRcndqq-35" target="czPCkU2lxytU1BRcndqq-38" edge="1">
          <mxGeometry relative="1" as="geometry" />
        </mxCell>
        <mxCell id="czPCkU2lxytU1BRcndqq-34" style="edgeStyle=none;rounded=0;orthogonalLoop=1;jettySize=auto;html=1;entryX=0;entryY=0.5;entryDx=0;entryDy=0;endArrow=none;endFill=0;fillColor=#dae8fc;strokeColor=#A9C4EB;fontFamily=Times New Roman;fontSize=14;" parent="1" source="czPCkU2lxytU1BRcndqq-35" target="czPCkU2lxytU1BRcndqq-39" edge="1">
          <mxGeometry relative="1" as="geometry" />
        </mxCell>
        <mxCell id="czPCkU2lxytU1BRcndqq-35" value="" style="ellipse;whiteSpace=wrap;html=1;strokeColor=#A9C4EB;fillColor=#A9C4EB;fontFamily=Times New Roman;fontSize=14;" parent="1" vertex="1">
          <mxGeometry x="-2501" y="-962" width="24" height="31" as="geometry" />
        </mxCell>
        <mxCell id="czPCkU2lxytU1BRcndqq-36" value="" style="ellipse;whiteSpace=wrap;html=1;strokeColor=#A9C4EB;fillColor=#A9C4EB;fontFamily=Times New Roman;fontSize=14;" parent="1" vertex="1">
          <mxGeometry x="-2443" y="-1159.5" width="24" height="31" as="geometry" />
        </mxCell>
        <mxCell id="czPCkU2lxytU1BRcndqq-37" value="" style="ellipse;whiteSpace=wrap;html=1;strokeColor=#A9C4EB;fillColor=#A9C4EB;fontFamily=Times New Roman;fontSize=14;" parent="1" vertex="1">
          <mxGeometry x="-2443" y="-1118.5" width="24" height="31" as="geometry" />
        </mxCell>
        <mxCell id="czPCkU2lxytU1BRcndqq-38" value="" style="ellipse;whiteSpace=wrap;html=1;strokeColor=#A9C4EB;fillColor=#A9C4EB;fontFamily=Times New Roman;fontSize=14;" parent="1" vertex="1">
          <mxGeometry x="-2443" y="-1073" width="24" height="31" as="geometry" />
        </mxCell>
        <mxCell id="czPCkU2lxytU1BRcndqq-39" value="" style="ellipse;whiteSpace=wrap;html=1;strokeColor=#A9C4EB;fillColor=#A9C4EB;fontFamily=Times New Roman;fontSize=14;" parent="1" vertex="1">
          <mxGeometry x="-2443" y="-962" width="24" height="31" as="geometry" />
        </mxCell>
        <mxCell id="czPCkU2lxytU1BRcndqq-40" value="&lt;b style=&quot;font-size: 14px;&quot;&gt;&lt;font style=&quot;font-size: 14px;&quot; color=&quot;#a9c4eb&quot;&gt;. . .&lt;/font&gt;&lt;/b&gt;" style="text;html=1;strokeColor=none;fillColor=none;align=center;verticalAlign=middle;whiteSpace=wrap;rounded=0;rotation=90;fontFamily=Times New Roman;fontSize=14;" parent="1" vertex="1">
          <mxGeometry x="-2504" y="-1006" width="40" height="11" as="geometry" />
        </mxCell>
        <mxCell id="czPCkU2lxytU1BRcndqq-41" value="&lt;b style=&quot;font-size: 14px;&quot;&gt;&lt;font style=&quot;font-size: 14px;&quot; color=&quot;#a9c4eb&quot;&gt;. . .&lt;/font&gt;&lt;/b&gt;" style="text;html=1;strokeColor=none;fillColor=none;align=center;verticalAlign=middle;whiteSpace=wrap;rounded=0;rotation=90;fontFamily=Times New Roman;fontSize=14;" parent="1" vertex="1">
          <mxGeometry x="-2447" y="-1006" width="40" height="11" as="geometry" />
        </mxCell>
        <mxCell id="czPCkU2lxytU1BRcndqq-42" value="&lt;font style=&quot;font-size: 37px;&quot;&gt;BERT&lt;/font&gt;" style="text;html=1;strokeColor=none;fillColor=none;align=center;verticalAlign=middle;whiteSpace=wrap;rounded=0;rotation=90;fontFamily=Times New Roman;fontSize=37;" parent="1" vertex="1">
          <mxGeometry x="-2490" y="-1067.5" width="60" height="38" as="geometry" />
        </mxCell>
        <mxCell id="czPCkU2lxytU1BRcndqq-43" value="" style="shape=flexArrow;endArrow=classic;html=1;strokeColor=#82b366;endWidth=4.285714285714286;endSize=3.0904761904761906;fillColor=#d5e8d4;fontFamily=Times New Roman;fontSize=14;" parent="1" edge="1">
          <mxGeometry width="50" height="50" relative="1" as="geometry">
            <mxPoint x="-2531" y="-1169.74" as="sourcePoint" />
            <mxPoint x="-2512" y="-1169.74" as="targetPoint" />
          </mxGeometry>
        </mxCell>
        <mxCell id="czPCkU2lxytU1BRcndqq-44" value="" style="shape=flexArrow;endArrow=classic;html=1;strokeColor=#82b366;endWidth=4.285714285714286;endSize=3.0904761904761906;fillColor=#d5e8d4;fontFamily=Times New Roman;fontSize=14;" parent="1" edge="1">
          <mxGeometry width="50" height="50" relative="1" as="geometry">
            <mxPoint x="-2531" y="-1122.74" as="sourcePoint" />
            <mxPoint x="-2512" y="-1122.74" as="targetPoint" />
          </mxGeometry>
        </mxCell>
        <mxCell id="czPCkU2lxytU1BRcndqq-45" value="" style="shape=flexArrow;endArrow=classic;html=1;strokeColor=#82b366;endWidth=4.285714285714286;endSize=3.0904761904761906;fillColor=#d5e8d4;fontFamily=Times New Roman;fontSize=14;" parent="1" edge="1">
          <mxGeometry width="50" height="50" relative="1" as="geometry">
            <mxPoint x="-2531" y="-1083.74" as="sourcePoint" />
            <mxPoint x="-2512" y="-1083.74" as="targetPoint" />
          </mxGeometry>
        </mxCell>
        <mxCell id="czPCkU2lxytU1BRcndqq-46" value="" style="shape=flexArrow;endArrow=classic;html=1;strokeColor=#82b366;endWidth=4.285714285714286;endSize=3.0904761904761906;fillColor=#d5e8d4;fontFamily=Times New Roman;fontSize=14;" parent="1" edge="1">
          <mxGeometry width="50" height="50" relative="1" as="geometry">
            <mxPoint x="-2531" y="-1034.8400000000001" as="sourcePoint" />
            <mxPoint x="-2512" y="-1034.8400000000001" as="targetPoint" />
          </mxGeometry>
        </mxCell>
        <mxCell id="czPCkU2lxytU1BRcndqq-47" value="" style="shape=flexArrow;endArrow=classic;html=1;strokeColor=#82b366;endWidth=4.285714285714286;endSize=3.0904761904761906;fillColor=#d5e8d4;fontFamily=Times New Roman;fontSize=14;" parent="1" edge="1">
          <mxGeometry width="50" height="50" relative="1" as="geometry">
            <mxPoint x="-2533" y="-966.84" as="sourcePoint" />
            <mxPoint x="-2514" y="-966.84" as="targetPoint" />
          </mxGeometry>
        </mxCell>
        <mxCell id="czPCkU2lxytU1BRcndqq-48" value="" style="shape=flexArrow;endArrow=classic;html=1;strokeColor=#82b366;endWidth=4.285714285714286;endSize=3.0904761904761906;fillColor=#d5e8d4;fontFamily=Times New Roman;fontSize=14;" parent="1" edge="1">
          <mxGeometry width="50" height="50" relative="1" as="geometry">
            <mxPoint x="-2533" y="-921.84" as="sourcePoint" />
            <mxPoint x="-2514" y="-921.84" as="targetPoint" />
          </mxGeometry>
        </mxCell>
        <mxCell id="czPCkU2lxytU1BRcndqq-49" value="h&lt;sub style=&quot;font-size: 14px;&quot;&gt;q1&lt;/sub&gt;" style="rounded=1;whiteSpace=wrap;html=1;direction=west;fillColor=#fff2cc;strokeColor=#d6b656;fontFamily=Times New Roman;fontSize=14;" parent="1" vertex="1">
          <mxGeometry x="-2371" y="-1180" width="44" height="21" as="geometry" />
        </mxCell>
        <mxCell id="czPCkU2lxytU1BRcndqq-50" value="h&lt;sub style=&quot;font-size: 14px;&quot;&gt;qm&lt;/sub&gt;" style="rounded=1;whiteSpace=wrap;html=1;fillColor=#fff2cc;strokeColor=#d6b656;fontFamily=Times New Roman;fontSize=14;" parent="1" vertex="1">
          <mxGeometry x="-2373" y="-1133" width="44" height="21" as="geometry" />
        </mxCell>
        <mxCell id="czPCkU2lxytU1BRcndqq-51" value="&lt;b style=&quot;font-size: 14px;&quot;&gt;&lt;font style=&quot;font-size: 14px;&quot;&gt;···&lt;/font&gt;&lt;/b&gt;" style="text;html=1;align=center;verticalAlign=middle;whiteSpace=wrap;rounded=0;rotation=90;fontFamily=Times New Roman;fontSize=14;" parent="1" vertex="1">
          <mxGeometry x="-2369" y="-1156" width="40" height="20" as="geometry" />
        </mxCell>
        <mxCell id="czPCkU2lxytU1BRcndqq-52" value="h&lt;sub style=&quot;font-size: 14px;&quot;&gt;11&lt;/sub&gt;" style="rounded=1;whiteSpace=wrap;html=1;fillColor=#fff2cc;strokeColor=#d6b656;fontFamily=Times New Roman;fontSize=14;" parent="1" vertex="1">
          <mxGeometry x="-2373" y="-1094" width="44" height="21" as="geometry" />
        </mxCell>
        <mxCell id="czPCkU2lxytU1BRcndqq-53" value="h&lt;sub style=&quot;font-size: 14px;&quot;&gt;1m&lt;/sub&gt;" style="rounded=1;whiteSpace=wrap;html=1;fillColor=#fff2cc;strokeColor=#d6b656;fontFamily=Times New Roman;fontSize=14;" parent="1" vertex="1">
          <mxGeometry x="-2373" y="-1045" width="44" height="21" as="geometry" />
        </mxCell>
        <mxCell id="czPCkU2lxytU1BRcndqq-54" value="&lt;b style=&quot;font-size: 14px;&quot;&gt;&lt;font style=&quot;font-size: 14px;&quot;&gt;···&lt;/font&gt;&lt;/b&gt;" style="text;html=1;align=center;verticalAlign=middle;whiteSpace=wrap;rounded=0;rotation=90;fontFamily=Times New Roman;fontSize=14;" parent="1" vertex="1">
          <mxGeometry x="-2371" y="-1067" width="40" height="20" as="geometry" />
        </mxCell>
        <mxCell id="czPCkU2lxytU1BRcndqq-55" value="h&lt;sub style=&quot;font-size: 14px;&quot;&gt;n1&lt;/sub&gt;" style="rounded=1;whiteSpace=wrap;html=1;fillColor=#fff2cc;strokeColor=#d6b656;fontFamily=Times New Roman;fontSize=14;" parent="1" vertex="1">
          <mxGeometry x="-2375" y="-977" width="44" height="21" as="geometry" />
        </mxCell>
        <mxCell id="czPCkU2lxytU1BRcndqq-56" value="h&lt;sub style=&quot;font-size: 14px;&quot;&gt;nm&lt;/sub&gt;" style="rounded=1;whiteSpace=wrap;html=1;fillColor=#fff2cc;strokeColor=#d6b656;fontFamily=Times New Roman;fontSize=14;" parent="1" vertex="1">
          <mxGeometry x="-2376" y="-932" width="44" height="21" as="geometry" />
        </mxCell>
        <mxCell id="czPCkU2lxytU1BRcndqq-57" value="&lt;b style=&quot;font-size: 14px;&quot;&gt;&lt;font style=&quot;font-size: 14px;&quot;&gt;···&lt;/font&gt;&lt;/b&gt;" style="text;html=1;align=center;verticalAlign=middle;whiteSpace=wrap;rounded=0;rotation=90;fontFamily=Times New Roman;fontSize=14;" parent="1" vertex="1">
          <mxGeometry x="-2373" y="-952" width="40" height="20" as="geometry" />
        </mxCell>
        <mxCell id="czPCkU2lxytU1BRcndqq-58" value="&lt;b style=&quot;font-size: 14px;&quot;&gt;&lt;font style=&quot;font-size: 14px;&quot;&gt;···&lt;/font&gt;&lt;/b&gt;" style="text;html=1;align=center;verticalAlign=middle;whiteSpace=wrap;rounded=0;rotation=90;fontFamily=Times New Roman;fontSize=14;" parent="1" vertex="1">
          <mxGeometry x="-2373" y="-1010" width="40" height="20" as="geometry" />
        </mxCell>
        <mxCell id="czPCkU2lxytU1BRcndqq-59" value="" style="shape=flexArrow;endArrow=classic;html=1;strokeColor=#d6b656;endWidth=4.285714285714286;endSize=3.0904761904761906;fillColor=#fff2cc;fontFamily=Times New Roman;fontSize=14;" parent="1" edge="1">
          <mxGeometry width="50" height="50" relative="1" as="geometry">
            <mxPoint x="-2405" y="-1169.87" as="sourcePoint" />
            <mxPoint x="-2386" y="-1169.87" as="targetPoint" />
          </mxGeometry>
        </mxCell>
        <mxCell id="czPCkU2lxytU1BRcndqq-60" value="" style="shape=flexArrow;endArrow=classic;html=1;strokeColor=#d6b656;endWidth=4.285714285714286;endSize=3.0904761904761906;fillColor=#fff2cc;fontFamily=Times New Roman;fontSize=14;" parent="1" edge="1">
          <mxGeometry width="50" height="50" relative="1" as="geometry">
            <mxPoint x="-2405" y="-1122.87" as="sourcePoint" />
            <mxPoint x="-2386" y="-1122.87" as="targetPoint" />
          </mxGeometry>
        </mxCell>
        <mxCell id="czPCkU2lxytU1BRcndqq-61" value="" style="shape=flexArrow;endArrow=classic;html=1;strokeColor=#d6b656;endWidth=4.285714285714286;endSize=3.0904761904761906;fillColor=#fff2cc;fontFamily=Times New Roman;fontSize=14;" parent="1" edge="1">
          <mxGeometry width="50" height="50" relative="1" as="geometry">
            <mxPoint x="-2405" y="-1083.87" as="sourcePoint" />
            <mxPoint x="-2386" y="-1083.87" as="targetPoint" />
          </mxGeometry>
        </mxCell>
        <mxCell id="czPCkU2lxytU1BRcndqq-62" value="" style="shape=flexArrow;endArrow=classic;html=1;strokeColor=#d6b656;endWidth=4.285714285714286;endSize=3.0904761904761906;fillColor=#fff2cc;fontFamily=Times New Roman;fontSize=14;" parent="1" edge="1">
          <mxGeometry width="50" height="50" relative="1" as="geometry">
            <mxPoint x="-2405" y="-1034.97" as="sourcePoint" />
            <mxPoint x="-2386" y="-1034.97" as="targetPoint" />
          </mxGeometry>
        </mxCell>
        <mxCell id="czPCkU2lxytU1BRcndqq-63" value="" style="shape=flexArrow;endArrow=classic;html=1;strokeColor=#d6b656;endWidth=4.285714285714286;endSize=3.0904761904761906;fillColor=#fff2cc;fontFamily=Times New Roman;fontSize=14;" parent="1" edge="1">
          <mxGeometry width="50" height="50" relative="1" as="geometry">
            <mxPoint x="-2407" y="-966.97" as="sourcePoint" />
            <mxPoint x="-2388" y="-966.97" as="targetPoint" />
          </mxGeometry>
        </mxCell>
        <mxCell id="czPCkU2lxytU1BRcndqq-64" value="" style="shape=flexArrow;endArrow=classic;html=1;strokeColor=#d6b656;endWidth=4.285714285714286;endSize=3.0904761904761906;fillColor=#fff2cc;fontFamily=Times New Roman;fontSize=14;" parent="1" edge="1">
          <mxGeometry width="50" height="50" relative="1" as="geometry">
            <mxPoint x="-2407" y="-921.97" as="sourcePoint" />
            <mxPoint x="-2388" y="-921.97" as="targetPoint" />
          </mxGeometry>
        </mxCell>
        <mxCell id="czPCkU2lxytU1BRcndqq-65" value="" style="shape=curlyBracket;whiteSpace=wrap;html=1;rounded=1;flipH=1;strokeWidth=1;fillColor=none;direction=north;fontFamily=Times New Roman;fontSize=14;" parent="1" vertex="1">
          <mxGeometry x="-2599" y="-896.5" width="268" height="20" as="geometry" />
        </mxCell>
        <mxCell id="czPCkU2lxytU1BRcndqq-66" value="&lt;font style=&quot;font-size: 16px&quot;&gt;&lt;b style=&quot;font-size: 16px&quot;&gt;词级别编码&lt;/b&gt;&lt;/font&gt;" style="text;html=1;strokeColor=none;fillColor=none;align=center;verticalAlign=middle;whiteSpace=wrap;rounded=0;fontFamily=Times New Roman;fontSize=16;" parent="1" vertex="1">
          <mxGeometry x="-2528.5" y="-871.5" width="138.5" height="20" as="geometry" />
        </mxCell>
        <mxCell id="czPCkU2lxytU1BRcndqq-67" value="问题&lt;br&gt;注意力" style="rounded=0;whiteSpace=wrap;html=1;strokeWidth=1;fillColor=#f8cecc;strokeColor=none;fontFamily=Times New Roman;fontSize=15;" parent="1" vertex="1">
          <mxGeometry x="-2278" y="-1176" width="70" height="60" as="geometry" />
        </mxCell>
        <mxCell id="czPCkU2lxytU1BRcndqq-68" value="子句&lt;br&gt;注意力" style="rounded=0;whiteSpace=wrap;html=1;strokeWidth=1;fillColor=#f8cecc;strokeColor=none;fontFamily=Times New Roman;fontSize=15;" parent="1" vertex="1">
          <mxGeometry x="-2278" y="-1090.25" width="70" height="59.25" as="geometry" />
        </mxCell>
        <mxCell id="czPCkU2lxytU1BRcndqq-69" value="" style="shape=flexArrow;endArrow=classic;html=1;strokeColor=#b85450;endWidth=4.285714285714286;endSize=3.0904761904761906;fillColor=#f8cecc;fontFamily=Times New Roman;fontSize=14;" parent="1" edge="1">
          <mxGeometry width="50" height="50" relative="1" as="geometry">
            <mxPoint x="-2301" y="-1146.42" as="sourcePoint" />
            <mxPoint x="-2282" y="-1146.42" as="targetPoint" />
          </mxGeometry>
        </mxCell>
        <mxCell id="czPCkU2lxytU1BRcndqq-70" value="" style="shape=flexArrow;endArrow=classic;html=1;strokeColor=#b85450;endWidth=4.285714285714286;endSize=3.0904761904761906;fillColor=#f8cecc;fontFamily=Times New Roman;fontSize=14;" parent="1" edge="1">
          <mxGeometry width="50" height="50" relative="1" as="geometry">
            <mxPoint x="-2302" y="-944.3400000000001" as="sourcePoint" />
            <mxPoint x="-2283" y="-944.3400000000001" as="targetPoint" />
          </mxGeometry>
        </mxCell>
        <mxCell id="czPCkU2lxytU1BRcndqq-71" value="" style="shape=curlyBracket;whiteSpace=wrap;html=1;rounded=1;flipH=1;strokeWidth=1;fillColor=none;direction=east;fontFamily=Times New Roman;fontSize=14;" parent="1" vertex="1">
          <mxGeometry x="-2320" y="-1169.62" width="12" height="47.25" as="geometry" />
        </mxCell>
        <mxCell id="czPCkU2lxytU1BRcndqq-72" value="" style="shape=curlyBracket;whiteSpace=wrap;html=1;rounded=1;flipH=1;strokeWidth=1;fillColor=none;direction=east;fontFamily=Times New Roman;fontSize=14;" parent="1" vertex="1">
          <mxGeometry x="-2320" y="-1084.5" width="12" height="52.5" as="geometry" />
        </mxCell>
        <mxCell id="czPCkU2lxytU1BRcndqq-73" value="" style="shape=flexArrow;endArrow=classic;html=1;strokeColor=#b85450;endWidth=4.285714285714286;endSize=3.0904761904761906;fillColor=#f8cecc;fontFamily=Times New Roman;fontSize=14;" parent="1" edge="1">
          <mxGeometry width="50" height="50" relative="1" as="geometry">
            <mxPoint x="-2176" y="-1143.4100000000003" as="sourcePoint" />
            <mxPoint x="-2049" y="-1143.5" as="targetPoint" />
          </mxGeometry>
        </mxCell>
        <mxCell id="czPCkU2lxytU1BRcndqq-74" value="" style="shape=flexArrow;endArrow=classic;html=1;strokeColor=#b85450;endWidth=4.285714285714286;endSize=3.0904761904761906;fillColor=#f8cecc;fontFamily=Times New Roman;fontSize=14;" parent="1" edge="1">
          <mxGeometry width="50" height="50" relative="1" as="geometry">
            <mxPoint x="-2204" y="-1059.5" as="sourcePoint" />
            <mxPoint x="-2185" y="-1059.5" as="targetPoint" />
          </mxGeometry>
        </mxCell>
        <mxCell id="czPCkU2lxytU1BRcndqq-75" style="edgeStyle=none;rounded=0;orthogonalLoop=1;jettySize=auto;html=1;entryX=1;entryY=0.5;entryDx=0;entryDy=0;endArrow=none;endFill=0;strokeColor=#A9C4EB;fillColor=#CDA2BE;exitX=0;exitY=0.5;exitDx=0;exitDy=0;fontFamily=Times New Roman;fontSize=14;" parent="1" source="czPCkU2lxytU1BRcndqq-77" target="czPCkU2lxytU1BRcndqq-91" edge="1">
          <mxGeometry relative="1" as="geometry" />
        </mxCell>
        <mxCell id="czPCkU2lxytU1BRcndqq-76" style="edgeStyle=none;rounded=0;orthogonalLoop=1;jettySize=auto;html=1;entryX=1;entryY=0.5;entryDx=0;entryDy=0;endArrow=none;endFill=0;strokeColor=#A9C4EB;fillColor=#CDA2BE;exitX=0;exitY=0.5;exitDx=0;exitDy=0;fontFamily=Times New Roman;fontSize=14;" parent="1" source="czPCkU2lxytU1BRcndqq-77" target="czPCkU2lxytU1BRcndqq-92" edge="1">
          <mxGeometry relative="1" as="geometry" />
        </mxCell>
        <mxCell id="czPCkU2lxytU1BRcndqq-77" value="h&lt;sub style=&quot;font-size: 14px;&quot;&gt;q&lt;/sub&gt;" style="rounded=1;whiteSpace=wrap;html=1;direction=west;fillColor=#e1d5e7;strokeColor=#9673a6;fontFamily=Times New Roman;fontSize=14;" parent="1" vertex="1">
          <mxGeometry x="-2016.87" y="-1156" width="44" height="21" as="geometry" />
        </mxCell>
        <mxCell id="czPCkU2lxytU1BRcndqq-78" value="h&lt;span style=&quot;font-size: 14px;&quot;&gt;&lt;sub style=&quot;font-size: 14px;&quot;&gt;c1&lt;/sub&gt;&lt;/span&gt;" style="rounded=1;whiteSpace=wrap;html=1;direction=west;fillColor=#e1d5e7;strokeColor=#9673a6;fontFamily=Times New Roman;fontSize=14;" parent="1" vertex="1">
          <mxGeometry x="-2183" y="-1071.12" width="44" height="21" as="geometry" />
        </mxCell>
        <mxCell id="czPCkU2lxytU1BRcndqq-79" value="h&lt;span style=&quot;font-size: 14px;&quot;&gt;&lt;sub style=&quot;font-size: 14px;&quot;&gt;cn&lt;/sub&gt;&lt;/span&gt;" style="rounded=1;whiteSpace=wrap;html=1;direction=west;fillColor=#e1d5e7;strokeColor=#9673a6;fontFamily=Times New Roman;fontSize=14;" parent="1" vertex="1">
          <mxGeometry x="-2183" y="-956.5" width="44" height="21" as="geometry" />
        </mxCell>
        <mxCell id="czPCkU2lxytU1BRcndqq-80" value="&lt;b style=&quot;font-size: 14px;&quot;&gt;&lt;font style=&quot;font-size: 14px;&quot;&gt;···&lt;/font&gt;&lt;/b&gt;" style="text;html=1;align=center;verticalAlign=middle;whiteSpace=wrap;rounded=0;rotation=90;fontFamily=Times New Roman;fontSize=14;" parent="1" vertex="1">
          <mxGeometry x="-2181" y="-1010" width="40" height="20" as="geometry" />
        </mxCell>
        <mxCell id="czPCkU2lxytU1BRcndqq-81" value="图注意力网络" style="rounded=0;whiteSpace=wrap;html=1;strokeWidth=1;strokeColor=none;fillColor=#CDA2BE;fontFamily=Times New Roman;fontSize=18;" parent="1" vertex="1">
          <mxGeometry x="-2107" y="-1089" width="57" height="178" as="geometry" />
        </mxCell>
        <mxCell id="czPCkU2lxytU1BRcndqq-82" value="" style="shape=flexArrow;endArrow=classic;html=1;strokeColor=#9673a6;endWidth=4.285714285714286;endSize=3.0904761904761906;fillColor=#e1d5e7;fontFamily=Times New Roman;fontSize=14;" parent="1" edge="1">
          <mxGeometry width="50" height="50" relative="1" as="geometry">
            <mxPoint x="-2132" y="-1059.5" as="sourcePoint" />
            <mxPoint x="-2113" y="-1059.5" as="targetPoint" />
          </mxGeometry>
        </mxCell>
        <mxCell id="czPCkU2lxytU1BRcndqq-83" value="" style="shape=flexArrow;endArrow=classic;html=1;strokeColor=#9673a6;endWidth=4.285714285714286;endSize=3.0904761904761906;fillColor=#e1d5e7;fontFamily=Times New Roman;fontSize=14;" parent="1" edge="1">
          <mxGeometry width="50" height="50" relative="1" as="geometry">
            <mxPoint x="-2132" y="-944.2900000000001" as="sourcePoint" />
            <mxPoint x="-2113" y="-944.2900000000001" as="targetPoint" />
          </mxGeometry>
        </mxCell>
        <mxCell id="czPCkU2lxytU1BRcndqq-84" style="edgeStyle=none;rounded=0;orthogonalLoop=1;jettySize=auto;html=1;entryX=1;entryY=0.5;entryDx=0;entryDy=0;endArrow=none;endFill=0;strokeColor=#A9C4EB;fillColor=#CDA2BE;exitX=0;exitY=0.5;exitDx=0;exitDy=0;fontFamily=Times New Roman;fontSize=14;" parent="1" source="czPCkU2lxytU1BRcndqq-85" target="czPCkU2lxytU1BRcndqq-91" edge="1">
          <mxGeometry relative="1" as="geometry" />
        </mxCell>
        <mxCell id="czPCkU2lxytU1BRcndqq-85" value="h&lt;sup style=&quot;font-size: 14px;&quot;&gt;&#39;&lt;/sup&gt;&lt;span style=&quot;font-size: 14px;&quot;&gt;&lt;sub style=&quot;font-size: 14px;&quot;&gt;c1&lt;/sub&gt;&lt;/span&gt;" style="rounded=1;whiteSpace=wrap;html=1;direction=west;strokeColor=#9673a6;fillColor=#CDA2BE;fontFamily=Times New Roman;fontSize=14;" parent="1" vertex="1">
          <mxGeometry x="-2016.87" y="-1071.12" width="44" height="21" as="geometry" />
        </mxCell>
        <mxCell id="czPCkU2lxytU1BRcndqq-86" style="edgeStyle=none;rounded=0;orthogonalLoop=1;jettySize=auto;html=1;entryX=1;entryY=0.5;entryDx=0;entryDy=0;endArrow=none;endFill=0;strokeColor=#A9C4EB;fillColor=#CDA2BE;exitX=0;exitY=0.5;exitDx=0;exitDy=0;fontFamily=Times New Roman;fontSize=14;" parent="1" source="czPCkU2lxytU1BRcndqq-87" target="czPCkU2lxytU1BRcndqq-92" edge="1">
          <mxGeometry relative="1" as="geometry" />
        </mxCell>
        <mxCell id="czPCkU2lxytU1BRcndqq-87" value="h&lt;sup style=&quot;font-size: 14px;&quot;&gt;&#39;&lt;/sup&gt;&lt;span style=&quot;font-size: 14px;&quot;&gt;&lt;sub style=&quot;font-size: 14px;&quot;&gt;cn&lt;/sub&gt;&lt;/span&gt;" style="rounded=1;whiteSpace=wrap;html=1;direction=west;strokeColor=#9673a6;fillColor=#CDA2BE;fontFamily=Times New Roman;fontSize=14;" parent="1" vertex="1">
          <mxGeometry x="-2016.87" y="-956.5" width="44" height="21" as="geometry" />
        </mxCell>
        <mxCell id="czPCkU2lxytU1BRcndqq-88" value="&lt;b style=&quot;font-size: 14px;&quot;&gt;&lt;font style=&quot;font-size: 14px;&quot;&gt;···&lt;/font&gt;&lt;/b&gt;" style="text;html=1;align=center;verticalAlign=middle;whiteSpace=wrap;rounded=0;rotation=90;fontFamily=Times New Roman;fontSize=14;" parent="1" vertex="1">
          <mxGeometry x="-2012.87" y="-1010" width="40" height="20" as="geometry" />
        </mxCell>
        <mxCell id="czPCkU2lxytU1BRcndqq-89" value="" style="shape=flexArrow;endArrow=classic;html=1;strokeColor=#9673a6;endWidth=4.285714285714286;endSize=3.0904761904761906;fillColor=#CDA2BE;fontFamily=Times New Roman;fontSize=14;" parent="1" edge="1">
          <mxGeometry width="50" height="50" relative="1" as="geometry">
            <mxPoint x="-2043" y="-1059.5" as="sourcePoint" />
            <mxPoint x="-2024" y="-1059.5" as="targetPoint" />
          </mxGeometry>
        </mxCell>
        <mxCell id="czPCkU2lxytU1BRcndqq-90" value="" style="shape=flexArrow;endArrow=classic;html=1;strokeColor=#9673a6;endWidth=4.285714285714286;endSize=3.0904761904761906;fillColor=#CDA2BE;fontFamily=Times New Roman;fontSize=14;" parent="1" edge="1">
          <mxGeometry width="50" height="50" relative="1" as="geometry">
            <mxPoint x="-2043" y="-944.2900000000001" as="sourcePoint" />
            <mxPoint x="-2024" y="-944.2900000000001" as="targetPoint" />
          </mxGeometry>
        </mxCell>
        <mxCell id="czPCkU2lxytU1BRcndqq-91" value="h&lt;span style=&quot;font-size: 14px;&quot;&gt;&lt;sub style=&quot;font-size: 14px;&quot;&gt;1&lt;/sub&gt;&lt;/span&gt;" style="rounded=1;whiteSpace=wrap;html=1;direction=west;fillColor=#b1ddf0;strokeColor=#10739e;fontFamily=Times New Roman;fontSize=14;" parent="1" vertex="1">
          <mxGeometry x="-1894.87" y="-1116" width="44" height="21" as="geometry" />
        </mxCell>
        <mxCell id="czPCkU2lxytU1BRcndqq-92" value="h&lt;span style=&quot;font-size: 14px;&quot;&gt;&lt;sub style=&quot;font-size: 14px;&quot;&gt;n&lt;/sub&gt;&lt;/span&gt;" style="rounded=1;whiteSpace=wrap;html=1;direction=west;fillColor=#b1ddf0;strokeColor=#10739e;fontFamily=Times New Roman;fontSize=14;" parent="1" vertex="1">
          <mxGeometry x="-1894.87" y="-996" width="44" height="21" as="geometry" />
        </mxCell>
        <mxCell id="czPCkU2lxytU1BRcndqq-93" value="&lt;b style=&quot;font-size: 14px;&quot;&gt;&lt;font style=&quot;font-size: 14px;&quot;&gt;···&lt;/font&gt;&lt;/b&gt;" style="text;html=1;align=center;verticalAlign=middle;whiteSpace=wrap;rounded=0;rotation=90;fontFamily=Times New Roman;fontSize=14;" parent="1" vertex="1">
          <mxGeometry x="-1890.87" y="-1055.5" width="40" height="20" as="geometry" />
        </mxCell>
        <mxCell id="czPCkU2lxytU1BRcndqq-94" value="&lt;font style=&quot;font-size: 25px&quot;&gt;拼接操作&lt;/font&gt;" style="text;html=1;strokeColor=none;fillColor=none;align=center;verticalAlign=middle;whiteSpace=wrap;rounded=0;shadow=0;glass=0;sketch=0;rotation=90;fontFamily=Times New Roman;fontSize=25;" parent="1" vertex="1">
          <mxGeometry x="-1986.93" y="-1058.5" width="107.1" height="20" as="geometry" />
        </mxCell>
        <mxCell id="czPCkU2lxytU1BRcndqq-95" value="" style="shape=curlyBracket;whiteSpace=wrap;html=1;rounded=1;flipH=1;strokeWidth=1;fillColor=none;direction=north;fontFamily=Times New Roman;fontSize=14;" parent="1" vertex="1">
          <mxGeometry x="-2293" y="-896.5" width="325" height="20" as="geometry" />
        </mxCell>
        <mxCell id="czPCkU2lxytU1BRcndqq-96" value="&lt;font style=&quot;font-size: 16px&quot;&gt;&lt;b style=&quot;font-size: 16px&quot;&gt;句级别编码&lt;/b&gt;&lt;/font&gt;" style="text;html=1;strokeColor=none;fillColor=none;align=center;verticalAlign=middle;whiteSpace=wrap;rounded=0;fontFamily=Times New Roman;fontSize=16;" parent="1" vertex="1">
          <mxGeometry x="-2208" y="-871.5" width="160" height="20" as="geometry" />
        </mxCell>
        <mxCell id="czPCkU2lxytU1BRcndqq-97" value="子句&lt;br&gt;注意力" style="rounded=0;whiteSpace=wrap;html=1;strokeWidth=1;fillColor=#f8cecc;strokeColor=none;fontFamily=Times New Roman;fontSize=15;" parent="1" vertex="1">
          <mxGeometry x="-2278" y="-977" width="70" height="59.25" as="geometry" />
        </mxCell>
        <mxCell id="czPCkU2lxytU1BRcndqq-98" value="" style="shape=curlyBracket;whiteSpace=wrap;html=1;rounded=1;flipH=1;strokeWidth=1;fillColor=none;direction=east;fontFamily=Times New Roman;fontSize=14;" parent="1" vertex="1">
          <mxGeometry x="-2320" y="-970.25" width="12" height="52.5" as="geometry" />
        </mxCell>
        <mxCell id="czPCkU2lxytU1BRcndqq-99" value="" style="shape=flexArrow;endArrow=classic;html=1;strokeColor=#b85450;endWidth=4.285714285714286;endSize=3.0904761904761906;fillColor=#f8cecc;fontFamily=Times New Roman;fontSize=14;" parent="1" edge="1">
          <mxGeometry width="50" height="50" relative="1" as="geometry">
            <mxPoint x="-2302" y="-1057.8400000000001" as="sourcePoint" />
            <mxPoint x="-2283" y="-1057.8400000000001" as="targetPoint" />
          </mxGeometry>
        </mxCell>
        <mxCell id="czPCkU2lxytU1BRcndqq-100" value="&lt;b style=&quot;font-size: 14px;&quot;&gt;&lt;font style=&quot;font-size: 14px;&quot;&gt;···&lt;/font&gt;&lt;/b&gt;" style="text;html=1;align=center;verticalAlign=middle;whiteSpace=wrap;rounded=0;rotation=90;fontFamily=Times New Roman;fontSize=14;" parent="1" vertex="1">
          <mxGeometry x="-2263" y="-1010" width="40" height="20" as="geometry" />
        </mxCell>
        <mxCell id="czPCkU2lxytU1BRcndqq-101" value="" style="shape=flexArrow;endArrow=classic;html=1;strokeColor=#b85450;endWidth=4.285714285714286;endSize=3.0904761904761906;fillColor=#f8cecc;fontFamily=Times New Roman;fontSize=14;" parent="1" edge="1">
          <mxGeometry width="50" height="50" relative="1" as="geometry">
            <mxPoint x="-2205" y="-944.34" as="sourcePoint" />
            <mxPoint x="-2186" y="-944.34" as="targetPoint" />
          </mxGeometry>
        </mxCell>
      </root>
    </mxGraphModel>
  </diagram>
</mxfile>
